<svg width="500" height="390" viewBox="0 0 500 390" fill="none" xmlns="http://www.w3.org/2000/svg">
<path d="M266.369 214.873C265.377 215.866 264.881 217.108 264.881 218.599C265.377 219.096 266.121 219.344 267.113 219.344C268.601 219.344 269.345 218.102 269.345 215.618C269.345 213.134 270.585 209.159 273.065 203.694C269.593 203.694 267.857 205.433 267.857 208.911V210.401C268.353 210.401 268.601 210.65 268.601 211.147C268.601 212.14 267.857 213.382 266.369 214.873Z" fill="white"/>
<path d="M256.696 196.987V197.732C256.696 198.229 257.688 198.975 259.673 199.968V196.242H257.44C257.44 196.739 257.192 196.987 256.696 196.987Z" fill="white"/>
<path d="M260.417 211.892C259.425 211.892 258.929 212.389 258.929 213.382L259.673 215.618L260.417 211.892Z" fill="white"/>
<path fill-rule="evenodd" clip-rule="evenodd" d="M481.399 109.796C482.391 104.331 483.879 97.6242 485.863 89.6752C485.863 82.2229 487.103 75.5159 489.583 69.5541C492.56 63.0955 494.048 55.6433 494.048 47.1975V45.707L488.839 39.7452L496.28 31.5478V24.8408L500 21.1147V17.3885L487.351 7.70065L478.423 9.1911L469.494 4.71975H465.03C463.046 4.22294 460.813 3.72612 458.333 3.2293L449.405 0.993639C446.925 9.99422e-07 445.684 -0.248406 445.684 0.248403H436.012C435.516 0.248403 433.036 0.993631 428.571 2.48409C424.107 3.47772 421.627 3.97454 421.131 3.97454C413.194 6.45861 405.258 7.70065 397.321 7.70065C389.881 7.70065 382.44 8.94268 375 11.4268L364.583 14.4077C357.143 15.8981 352.431 17.637 350.446 19.6242L335.565 16.6433C335.069 16.6433 332.341 17.1401 327.381 18.1338L322.173 19.6242C320.684 18.6306 317.212 18.1338 311.756 18.1338C306.796 17.6369 303.323 17.1401 301.339 16.6433L295.961 17.277C293.247 15.4384 290.327 13.7368 287.202 12.172C281.25 9.19108 275.05 7.70063 268.601 7.70063C268.105 8.19745 267.361 8.44587 266.369 8.44587C265.377 8.94268 264.137 9.19108 262.649 9.19108L261.161 11.4268L260.417 10.6815C256.448 11.6752 252.976 14.1592 250 18.1338C247.52 21.6115 245.04 26.0828 242.56 31.5478C240.079 36.5159 237.847 41.9809 235.863 47.9427C234.375 53.9045 232.887 59.3694 231.399 64.3376L233.631 68.0637C231.647 78.9936 229.167 92.1592 226.19 107.561C223.71 122.465 221.23 135.879 218.75 147.803C218.75 149.293 218.254 150.287 217.262 150.783C216.27 151.28 215.03 151.777 213.542 152.274C212.55 152.274 211.31 152.771 209.821 153.764C208.829 154.758 208.085 156.745 207.589 159.726L201.637 204.439V206.675C202.133 206.675 202.381 207.172 202.381 208.166V209.656C202.381 215.618 201.389 219.344 199.405 220.834C197.917 222.325 197.173 224.064 197.173 226.051V226.796L200.149 226.051C201.141 228.038 201.637 229.529 201.637 230.522C201.637 234 200.893 237.975 199.405 242.446C197.917 246.42 197.173 250.892 197.173 255.86V265.548C196.677 266.541 196.429 267.535 196.429 268.529C196.429 269.025 195.933 269.274 194.94 269.274H193.452L192.708 265.548C189.236 260.083 185.02 254.369 180.06 248.408C175.595 241.949 171.379 236.484 167.411 232.013C163.442 221.083 158.234 210.401 151.786 199.968C145.833 189.535 140.129 179.35 134.673 169.414C134.177 168.42 131.448 163.204 126.488 153.764C122.024 144.325 116.567 134.14 110.119 123.21C104.167 111.783 97.9663 101.35 91.5179 91.9108C85.5655 82.4713 80.8532 77.0064 77.3809 75.5159L73.6607 74.0255C72.6686 74.0255 71.1805 73.0318 69.1964 71.0446C67.7083 69.0573 66.7163 68.0637 66.2202 68.0637H63.244C61.2599 68.0637 60.0198 68.3121 59.5238 68.8089C59.0278 69.3057 58.2837 69.5541 57.2917 69.5541C52.8274 69.5541 48.3631 69.3057 43.8988 68.8089C39.4345 68.3121 35.2183 68.0637 31.25 68.0637H18.6012C17.1131 68.0637 16.369 68.8089 16.369 70.2994C16.369 72.7834 16.6171 74.7707 17.1131 76.2611C18.1052 77.2548 18.6012 78.2484 18.6012 79.242C18.6012 81.7261 18.1052 83.465 17.1131 84.4586L20.0893 82.9681V85.2038C20.0893 94.1465 19.0972 102.592 17.1131 110.541C15.129 117.994 14.1369 126.191 14.1369 135.134C14.1369 136.127 14.6329 136.624 15.625 136.624V147.803C15.625 152.771 14.881 155.255 13.3929 155.255C13.8889 157.242 14.1369 159.726 14.1369 162.707C14.1369 170.656 12.4008 177.86 8.92857 184.318C5.45635 190.777 3.72024 196.739 3.72024 202.204L4.46429 204.439L3.72024 223.07V226.051C4.21627 226.548 4.46429 227.293 4.46429 228.287V232.013C4.46429 233.006 4.21627 235.49 3.72024 239.465C3.22421 242.943 2.72818 246.669 2.23214 250.643C2.23214 254.618 1.98413 258.592 1.4881 262.567C0.992064 266.045 0.744049 268.28 0.744049 269.274C0.248017 279.21 0 289.395 0 299.828V347.522C0.496033 349.51 1.24008 351.994 2.23214 354.975C3.22421 357.955 3.72024 360.688 3.72024 363.172C2.72817 364.166 2.23214 365.159 2.23214 366.153L4.46429 369.879L9.67262 380.312C11.6567 383.293 15.377 384.783 20.8333 384.783C21.8254 384.783 22.8175 384.038 23.8095 382.548C24.8016 381.554 26.7857 381.057 29.7619 381.057V382.548L37.2024 390C39.6825 388.51 40.9226 386.274 40.9226 383.293L46.131 388.51C46.627 388.51 47.619 387.268 49.1071 384.783C50.5952 382.796 52.0833 380.312 53.5714 377.331C55.0595 374.35 56.2996 371.618 57.2917 369.134C58.2837 366.65 58.7798 365.159 58.7798 364.662C60.2679 352.739 61.5079 342.554 62.5 334.108C63.4921 325.662 64.2361 316.72 64.7321 307.28C65.7242 297.344 66.9643 285.917 68.4524 273C70.4365 259.586 72.9167 242.197 75.8928 220.834V218.599L75.1488 213.382C75.1488 209.408 75.3968 204.936 75.8928 199.968C76.8849 195 77.3809 190.28 77.3809 185.809L78.869 182.828L79.6131 184.318C86.0615 193.261 91.2698 202.701 95.2381 212.637C99.2063 222.076 104.415 231.019 110.863 239.465L165.179 313.242C166.667 317.217 168.651 321.439 171.131 325.911C174.107 329.885 177.331 333.611 180.804 337.089C184.276 340.567 187.748 343.548 191.22 346.032C195.188 348.516 198.909 349.758 202.381 349.758L209.077 353.484C213.046 354.478 216.766 355.223 220.238 355.72C224.206 355.72 228.423 356.713 232.887 358.701C234.871 356.217 237.599 355.223 241.071 355.72C243.877 355.72 245.815 354.975 246.885 353.484H270.833C279.762 353.484 290.675 352.49 303.571 350.503C316.964 349.013 334.821 345.535 357.143 340.07L371.28 338.58C374.752 337.586 377.976 337.089 380.952 337.089C384.425 337.089 387.897 336.841 391.369 336.344C396.329 334.853 401.29 333.115 406.25 331.127C411.21 329.14 416.171 328.147 421.131 328.147L421.875 329.637L428.571 328.147C430.556 328.147 433.284 327.65 436.756 326.656C440.724 325.662 443.204 324.669 444.196 323.675L445.684 322.93L447.173 315.478L456.101 305.79C456.597 306.287 457.093 306.535 457.589 306.535C459.573 306.535 460.565 305.293 460.565 302.809C462.55 292.376 467.014 283.682 473.958 276.726C481.399 269.274 488.591 261.325 495.536 252.879L497.768 229.777C497.768 228.287 495.04 225.057 489.583 220.089C484.623 215.121 478.919 209.904 472.47 204.44C466.022 198.975 459.573 193.758 453.125 188.79C447.173 183.822 443.452 180.592 441.964 179.102C439.484 177.611 437.004 176.369 434.524 175.376C432.54 173.885 430.308 171.898 427.827 169.414C438.244 161.962 445.933 156.497 450.893 153.019C456.349 149.045 460.317 146.312 462.798 144.822C465.278 142.834 466.766 141.592 467.262 141.096C467.758 140.599 468.502 139.605 469.494 138.115C470.982 136.127 472.47 134.637 473.958 133.643C475.942 132.65 477.679 130.911 479.167 128.427C480.159 121.471 480.903 115.261 481.399 109.796ZM260.417 302.809V283.433L261.905 279.707C261.905 270.268 263.145 260.828 265.625 251.389C268.105 241.949 270.337 232.261 272.321 222.325L271.577 221.58C270.585 221.58 269.593 222.076 268.601 223.07C268.105 223.567 267.361 223.815 266.369 223.815C265.873 223.815 265.377 223.567 264.881 223.07C262.897 225.057 261.409 226.051 260.417 226.051H257.44C256.448 225.554 255.208 225.306 253.72 225.306C253.72 220.338 254.712 216.363 256.696 213.382C259.177 210.401 260.417 207.669 260.417 205.185H259.673C258.185 205.185 256.696 203.943 255.208 201.459C254.712 201.459 254.216 201.707 253.72 202.204H251.488C251.984 200.713 253.472 198.229 255.952 194.752C258.929 191.274 260.417 188.79 260.417 187.299L258.185 181.338C261.657 178.854 263.145 175.624 262.649 171.65C262.649 167.675 264.881 164.446 269.345 161.962C268.849 162.955 268.105 164.197 267.113 165.688C266.617 166.682 266.121 168.172 265.625 170.159C270.585 170.159 273.561 169.166 274.554 167.178C276.042 165.191 277.282 164.197 278.274 164.197L279.762 164.943C279.266 164.446 279.018 163.701 279.018 162.707C279.018 160.72 279.762 158.981 281.25 157.49C283.234 156 284.226 154.51 284.226 153.019L281.994 152.274C281.002 152.771 280.01 153.764 279.018 155.255C278.026 156.745 277.034 157.739 276.042 158.236C275.05 157.739 274.554 156.994 274.554 156C274.554 155.006 273.561 154.013 271.577 153.019C270.585 156.497 268.849 158.236 266.369 158.236H264.881C264.881 154.758 265.625 152.274 267.113 150.783C268.601 149.293 270.089 148.548 271.577 148.548L274.554 151.529C274.554 148.051 275.05 145.567 276.042 144.076C277.034 142.586 277.53 141.592 277.53 141.096C277.53 140.599 277.282 140.35 276.786 140.35L274.554 136.624C275.546 135.631 277.282 134.389 279.762 132.898C282.242 131.408 283.73 129.669 284.226 127.682H287.202V114.268L291.667 108.306V112.032C295.139 102.592 298.363 94.8917 301.339 88.9299C304.315 82.9682 307.044 77.7516 309.524 73.2803L314.36 63.5924H319.196C326.141 63.5924 333.333 63.344 340.774 62.8471C348.71 62.3503 353.423 61.8535 354.911 61.3567L368.304 59.121C369.792 58.6242 371.776 58.3758 374.256 58.3758H376.488C387.401 55.8917 395.089 53.6561 399.554 51.6688C404.514 49.6815 408.234 48.6879 410.714 48.6879H414.434C414.434 58.6242 413.442 68.3121 411.458 77.7516C409.474 87.1911 408.482 96.6306 408.482 106.07L407.738 107.561C402.282 111.038 397.321 114.268 392.857 117.248C388.393 120.229 383.433 123.955 377.976 128.427C376.488 129.917 375.248 131.656 374.256 133.643C373.76 135.134 372.272 136.624 369.792 138.115C367.808 139.605 366.815 140.102 366.815 139.605C366.815 139.108 366.071 139.854 364.583 141.841L362.351 143.331V154.51L364.583 159.726C364.583 160.72 364.087 162.459 363.095 164.943C362.103 166.93 361.607 168.917 361.607 170.904C361.607 176.369 362.847 180.096 365.327 182.083C368.304 183.573 371.776 185.809 375.744 188.79L421.875 222.325C422.371 223.318 423.115 224.312 424.107 225.306C425.099 226.299 425.595 227.293 425.595 228.287C425.595 234.745 424.107 240.955 421.131 246.917C418.155 252.382 414.434 257.35 409.97 261.822C405.506 265.796 400.546 269.274 395.089 272.255C389.633 275.236 384.425 277.223 379.464 278.217L374.256 279.707C371.776 280.701 369.544 282.936 367.559 286.414C366.071 289.395 361.359 290.885 353.423 290.885H344.494C342.014 290.885 340.526 291.134 340.03 291.631L342.262 293.121L334.821 296.847L335.565 299.828C327.133 299.828 318.948 300.573 311.012 302.064C303.075 303.057 294.643 303.554 285.714 303.554C284.226 303.554 282.242 303.306 279.762 302.809C277.778 301.815 276.042 301.318 274.554 301.318L270.833 302.809H260.417ZM485.119 65.828L482.143 65.0828L487.351 54.6497L485.119 65.828ZM250.744 150.783V153.764L248.512 154.51C249.008 156.497 249.256 157.739 249.256 158.236C249.752 158.732 250.248 159.478 250.744 160.471C247.768 161.962 245.784 163.701 244.792 165.688C243.8 167.178 243.304 168.669 243.304 170.159V174.631C243.304 175.624 242.808 176.369 241.815 176.866L235.119 179.847C237.599 182.828 239.087 184.567 239.583 185.064C240.575 185.561 241.071 187.299 241.071 190.28L238.839 193.261C237.847 192.268 236.359 191.025 234.375 189.535C232.887 188.045 232.143 186.306 232.143 184.318C232.143 181.834 232.887 178.605 234.375 174.631C236.359 170.656 238.591 166.682 241.071 162.707C243.552 158.236 246.528 153.516 250 148.548C250.496 148.548 250.744 149.293 250.744 150.783ZM267.857 139.605C269.345 140.599 270.089 141.841 270.089 143.331H267.113L267.857 139.605ZM255.952 147.803C256.448 147.803 256.696 147.306 256.696 146.312L258.929 147.803L255.952 149.293V147.803Z" fill="white"/>
</svg>
