<svg width="226" height="84" viewBox="0 0 226 84" fill="none" xmlns="http://www.w3.org/2000/svg">
<path d="M39.6 45.7C39.3333 47.0333 39.0333 48.3333 38.7 49.6C38.3667 50.8667 38.2 52.1333 38.2 53.4L38 53.9V58.1C38 58.6333 38.1 59.1 38.3 59.5C38.5667 59.9 38.7 60.3667 38.7 60.9C38.7 61.3667 38.6333 61.5667 38.5 61.5C38.4333 61.4333 38.3333 61.5333 38.2 61.8L37.8 62.6C37.6667 62.7333 37.3333 62.8 36.8 62.8L36.5 62.6L36.3 63C36.2333 63.4 35.9333 63.6 35.4 63.6C34.9333 63.5333 34.5667 63.6667 34.3 64C33.7 63.7333 33.1333 63.6 32.6 63.6C32.1333 63.5333 31.6333 63.4333 31.1 63.3L30.2 62.8C29.7333 62.8 29.2333 62.6333 28.7 62.3C28.2333 61.9667 27.7667 61.5667 27.3 61.1C26.8333 60.6333 26.4 60.1333 26 59.6C25.6667 59 25.4 58.4333 25.2 57.9L17.9 48C17.0333 46.8667 16.3333 45.6667 15.8 44.4C15.2667 43.0667 14.5667 41.8 13.7 40.6L13.6 40.4L13.4 40.8C13.4 41.4 13.3333 42.0333 13.2 42.7C13.1333 43.3667 13.1 43.9667 13.1 44.5L13.2 45.2V45.5C12.8 48.3667 12.4667 50.7 12.2 52.5C12 54.2333 11.8333 55.7667 11.7 57.1C11.6333 58.3667 11.5333 59.5667 11.4 60.7C11.2667 61.8333 11.1 63.2 10.9 64.8C10.9 64.8667 10.8333 65.0667 10.7 65.4C10.5667 65.7333 10.4 66.1 10.2 66.5C10 66.9 9.8 67.2333 9.6 67.5C9.4 67.8333 9.26667 68 9.2 68L8.5 67.3C8.5 67.7 8.33333 68 8 68.2L7 67.2V67C6.6 67 6.33333 67.0667 6.2 67.2C6.06667 67.4 5.93333 67.5 5.8 67.5C5.06667 67.5 4.56667 67.3 4.3 66.9C4.1 66.5 3.86667 66.0333 3.6 65.5L3.3 65C3.3 64.8667 3.36667 64.7333 3.5 64.6C3.5 64.2667 3.43333 63.9 3.3 63.5C3.16667 63.1 3.06667 62.7667 3 62.5V60.1C3 58.7667 3 57.4333 3 56.1C3 54.7 3.03333 53.3333 3.1 52C3.1 51.8667 3.13333 51.5667 3.2 51.1C3.26667 50.5667 3.3 50.0333 3.3 49.5C3.36667 48.9667 3.43333 48.4667 3.5 48C3.56667 47.4667 3.6 47.1333 3.6 47V46.5C3.6 46.3667 3.56667 46.2667 3.5 46.2C3.5 46.1333 3.5 46 3.5 45.8L3.6 43.3L3.5 43C3.5 42.2667 3.73333 41.4667 4.2 40.6C4.66667 39.7333 4.9 38.7667 4.9 37.7C4.9 37.3 4.86667 36.9667 4.8 36.7C5 36.7 5.1 36.3667 5.1 35.7V34.7V34.2C4.96667 34.2 4.9 34.1333 4.9 34C4.9 32.8 5.03333 31.7 5.3 30.7C5.56667 29.6333 5.7 28.5 5.7 27.3V27L5.3 27.2C5.43333 27.0667 5.5 26.8333 5.5 26.5C5.5 26.3667 5.43333 26.2333 5.3 26.1C5.23333 25.9 5.2 25.6333 5.2 25.3C5.2 25.1 5.3 25 5.5 25H7.2C7.73333 25 8.3 25.0333 8.9 25.1C9.5 25.1667 10.1 25.2 10.7 25.2C10.8333 25.2 10.9333 25.1667 11 25.1C11.0667 25.0333 11.2333 25 11.5 25H11.9C11.9667 25 12.1 25.1333 12.3 25.4C12.5667 25.6667 12.7667 25.8 12.9 25.8L13.4 26C13.8667 26.2 14.5 26.9333 15.3 28.2C16.1667 29.4667 17 30.8667 17.8 32.4C18.6667 33.8667 19.4 35.2333 20 36.5C20.6667 37.7667 21.0333 38.4667 21.1 38.6C21.8333 39.9333 22.6 41.3 23.4 42.7C24.2667 44.1 24.9667 45.5333 25.5 47C26.0333 47.6 26.6 48.3333 27.2 49.2C27.8667 50 28.4333 50.7667 28.9 51.5L29 52H29.2C29.3333 52 29.4 51.9667 29.4 51.9C29.4 51.7667 29.4333 51.6333 29.5 51.5V50.2C29.5 49.5333 29.6 48.9333 29.8 48.4C30 47.8 30.1 47.2667 30.1 46.8C30.1 46.6667 30.0333 46.4667 29.9 46.2L29.5 46.3V46.2C29.5 45.9333 29.6 45.7 29.8 45.5C30.0667 45.3 30.2 44.8 30.2 44V43.8C30.2 43.6667 30.1667 43.6 30.1 43.6C30.1 43.5333 30.1 43.4333 30.1 43.3L30.9 37.3C30.9667 36.9 31.0667 36.6333 31.2 36.5C31.4 36.3667 31.5667 36.3 31.7 36.3C31.9 36.2333 32.0667 36.1667 32.2 36.1C32.3333 36.0333 32.4 35.9 32.4 35.7C32.7333 34.1 33.0667 32.3 33.4 30.3C33.8 28.2333 34.1333 26.4667 34.4 25L34.1 24.5C34.3 23.8333 34.5 23.1 34.7 22.3C34.9667 21.5 35.2667 20.7667 35.6 20.1C35.9333 19.3667 36.2667 18.7667 36.6 18.3C37 17.7667 37.4667 17.4333 38 17.3L38.1 17.4L38.3 17.1C38.5 17.1 38.6667 17.0667 38.8 17C38.9333 17 39.0333 16.9667 39.1 16.9C39.9667 16.9 40.8 17.1 41.6 17.5C42.4 17.9 43.1 18.3667 43.7 18.9C44.3667 19.3667 44.8667 19.8333 45.2 20.3C45.6 20.7667 45.8 21.1 45.8 21.3L45.9 21.5C45.9 21.5667 46.0333 21.7333 46.3 22V22.1C46.0333 22.7667 45.7667 23.3667 45.5 23.9C45.2333 24.4333 44.9333 25.0333 44.6 25.7C44.2667 26.3 43.9 27 43.5 27.8C43.1 28.6 42.6667 29.6333 42.2 30.9V30.4L41.6 31.2V33H41.2C41.1333 33.2667 40.9333 33.5 40.6 33.7C40.2667 33.9 40.0333 34.0667 39.9 34.2L40.2 34.7C40.2667 34.7 40.3 34.7333 40.3 34.8C40.3 34.8667 40.2333 35 40.1 35.2C39.9667 35.4 39.9 35.7333 39.9 36.2L39.5 35.8C39.3 35.8 39.1 35.9 38.9 36.1C38.7 36.3 38.6 36.6333 38.6 37.1H38.8C39.1333 37.1 39.3667 36.8667 39.5 36.4C39.7667 36.5333 39.9 36.6667 39.9 36.8C39.9 36.9333 39.9667 37.0333 40.1 37.1C40.2333 37.0333 40.3667 36.9 40.5 36.7C40.6333 36.5 40.7667 36.3667 40.9 36.3L41.2 36.4C41.2 36.6 41.0667 36.8 40.8 37C40.6 37.2 40.5 37.4333 40.5 37.7C40.5 37.8333 40.5333 37.9333 40.6 38C40.4667 37.9333 40.4 37.9 40.4 37.9C40.2667 37.9 40.1 38.0333 39.9 38.3C39.7667 38.5667 39.3667 38.7 38.7 38.7C38.7667 38.4333 38.8333 38.2333 38.9 38.1C39.0333 37.9 39.1333 37.7333 39.2 37.6C38.6 37.9333 38.3 38.3667 38.3 38.9C38.3667 39.4333 38.1667 39.8667 37.7 40.2L38 41C38 41.2 37.8 41.5333 37.4 42C37.0667 42.4667 36.8667 42.8 36.8 43H37C37.0667 43 37.1 43 37.1 43C37.1667 42.9333 37.2333 42.9 37.3 42.9C37.5 43.2333 37.7 43.4 37.9 43.4H38C38 43.7333 37.8333 44.1 37.5 44.5C37.2333 44.9 37.1 45.4333 37.1 46.1C37.3 46.1 37.4667 46.1333 37.6 46.2C37.7333 46.2 37.8667 46.2 38 46.2C38.1333 46.2 38.3333 46.0667 38.6 45.8C38.6667 45.8667 38.7333 45.9 38.8 45.9C38.9333 45.9 39.0333 45.8667 39.1 45.8C39.2333 45.6667 39.3667 45.6 39.5 45.6L39.6 45.7ZM36.7 36.5V36.1C36.7 35.9 36.6667 35.8 36.6 35.8C36.1333 36.4667 35.7333 37.1 35.4 37.7C35.0667 38.2333 34.7667 38.7667 34.5 39.3C34.3 39.8333 34.2 40.2667 34.2 40.6C34.2 40.8667 34.3 41.1 34.5 41.3C34.7667 41.5 34.9667 41.6667 35.1 41.8L35.4 41.4C35.4 41 35.3333 40.7667 35.2 40.7C35.1333 40.6333 34.9333 40.4 34.6 40L35.5 39.6C35.6333 39.5333 35.7 39.4333 35.7 39.3C35.7 39.1 35.7 38.9 35.7 38.7C35.7 38.5 35.7667 38.3 35.9 38.1C36.0333 37.8333 36.3 37.6 36.7 37.4C36.6333 37.2667 36.5667 37.1667 36.5 37.1C36.5 37.0333 36.4667 36.8667 36.4 36.6L36.7 36.5ZM38.6 45.2C38.6 45 38.6667 44.8333 38.8 44.7C39 44.5 39.1 44.3333 39.1 44.2C39.1 44.1333 39.0667 44.1 39 44.1C39 44.0333 39 43.9667 39 43.9C39 43.4333 39.2333 43.2 39.7 43.2C39.3667 43.9333 39.2 44.4667 39.2 44.8C39.2 45.1333 39.1 45.3 38.9 45.3C38.7667 45.3 38.6667 45.2667 38.6 45.2ZM39.3 35.1C39.3 34.9 39.2 34.7333 39 34.6L38.9 35.1H39.3ZM37.9 42.7C37.6333 42.5667 37.5 42.4667 37.5 42.4C37.5 42.3333 37.5 42.3 37.5 42.3C37.5667 42.3 37.6 42.2667 37.6 42.2H37.9V42.7ZM37.5 35.5C37.5 35.6333 37.4667 35.7 37.4 35.7C37.4 35.7 37.4 35.7667 37.4 35.9L37.8 35.7L37.5 35.5ZM37.8 44.5C37.8 44.3667 37.8667 44.3 38 44.3L37.9 44.8L37.8 44.5Z" fill="black"/>
<path d="M68.3 27.9C68.0333 28.9667 67.8333 29.8667 67.7 30.6C67.6333 31.3333 67.5333 32.1667 67.4 33.1C67.2 33.4333 66.9667 33.6667 66.7 33.8C66.5 33.9333 66.3 34.1333 66.1 34.4C65.9667 34.6 65.8667 34.7333 65.8 34.8C65.7333 34.8667 65.5333 35.0333 65.2 35.3C64.8667 35.5 64.3333 35.8667 63.6 36.4C62.9333 36.8667 61.9 37.6 60.5 38.6C60.8333 38.9333 61.1333 39.2 61.4 39.4C61.7333 39.5333 62.0667 39.7 62.4 39.9C62.6 40.1 63.1 40.5333 63.9 41.2C64.7667 41.8667 65.6333 42.5667 66.5 43.3C67.3667 44.0333 68.1333 44.7333 68.8 45.4C69.5333 46.0667 69.9 46.5 69.9 46.7L69.6 49.8C68.6667 50.9333 67.7 52 66.7 53C65.7667 53.9333 65.1667 55.1 64.9 56.5C64.9 56.8333 64.7667 57 64.5 57C64.4333 57 64.3667 56.9667 64.3 56.9L63.1 58.2L62.9 59.2L62.7 59.3C62.5667 59.4333 62.2333 59.5667 61.7 59.7C61.2333 59.8333 60.8667 59.9 60.6 59.9L59.7 60.1L59.6 59.9C58.9333 59.9 58.2667 60.0333 57.6 60.3C56.9333 60.5667 56.2667 60.8 55.6 61C55.1333 61.0667 54.6667 61.1 54.2 61.1C53.8 61.1 53.3667 61.1667 52.9 61.3L51 61.5C48 62.2333 45.6 62.7 43.8 62.9C42.0667 63.1667 40.6 63.3 39.4 63.3H37.2H36C34.8667 62.5 34.0667 61.7 33.6 60.9C33.2 60.1 33 59.0333 33 57.7L33.7 56.8H34.3L34.7 56.5H39.4L39.9 56.3C40.1 56.3 40.3333 56.3667 40.6 56.5C40.9333 56.5667 41.2 56.6 41.4 56.6C42.6 56.6 43.7333 56.5333 44.8 56.4C45.8667 56.2 46.9667 56.1 48.1 56.1L48 55.7L49 55.2L48.7 55C48.7667 54.9333 48.9667 54.9 49.3 54.9H50.5C51.5667 54.9 52.2 54.7 52.4 54.3C52.6667 53.8333 52.9667 53.5333 53.3 53.4L54 53.2C54.6667 53.0667 55.3667 52.8 56.1 52.4C56.8333 52 57.5 51.5333 58.1 51C58.7 50.4 59.2 49.7333 59.6 49C60 48.2 60.2 47.3667 60.2 46.5C60.2 46.3667 60.1333 46.2333 60 46.1C59.8667 45.9667 59.7667 45.8333 59.7 45.7L53.5 41.2C52.9667 40.8 52.5 40.5 52.1 40.3C51.7667 40.0333 51.6 39.5333 51.6 38.8C51.6 38.5333 51.6667 38.2667 51.8 38C51.9333 37.6667 52 37.4333 52 37.3L51.7 36.6V35.1L52 34.9C52.2 34.6333 52.3 34.5333 52.3 34.6C52.3 34.6667 52.4333 34.6 52.7 34.4C53.0333 34.2 53.2333 34 53.3 33.8C53.4333 33.5333 53.6 33.3 53.8 33.1C54.5333 32.5 55.2 32 55.8 31.6C56.4 31.2 57.0667 30.7667 57.8 30.3L57.9 30.1C57.9 28.8333 58.0333 27.5667 58.3 26.3C58.5667 25.0333 58.7 23.7333 58.7 22.4H58.2C57.8667 22.4 57.3667 22.5333 56.7 22.8C56.1 23.0667 55.0667 23.3667 53.6 23.7H53.3C52.9667 23.7 52.7 23.7333 52.5 23.8L50.7 24.1C50.5 24.1667 49.8667 24.2333 48.8 24.3C47.8 24.3667 46.8333 24.4 45.9 24.4C45.3667 24.4 44.9 24.4 44.5 24.4C44.1667 24.3333 43.9667 24.2667 43.9 24.2L43.4 24.1L42.9 22.5L42.3 21.8L41.5 20.1L41.8 18.3L43.5 18.1C43.7667 18.1667 44.2333 18.2333 44.9 18.3C45.6333 18.3 46.1 18.3667 46.3 18.5L47 18.3C47.6667 18.1667 48.0333 18.1 48.1 18.1L50.1 18.5C50.3667 18.2333 51 18 52 17.8L53.4 17.4C54.4 17.0667 55.4 16.9 56.4 16.9C57.4667 16.9 58.5333 16.7333 59.6 16.4C59.6667 16.4 60 16.3333 60.6 16.2C61.2 16 61.5333 15.9 61.6 15.9H62.5C62.8333 15.9 62.9667 15.9 62.9 15.9C62.9 15.8333 63.0667 15.8667 63.4 16L64.6 16.3C64.9333 16.3667 65.2333 16.4333 65.5 16.5C65.7667 16.5 65.9667 16.5 66.1 16.5L67.3 17.1L68.5 16.9L70.2 18.2V18.7L69.7 19.2V20.1L68.7 21.2L69.4 22V22.2C69.4 23.3333 69.2 24.3333 68.8 25.2C68.4667 26 68.3 26.9 68.3 27.9ZM67.8 24.6L68.2 24.7L68.5 23.2L67.8 24.6Z" fill="black"/>
<path d="M92.3574 56.5098L96.4199 44.7812H98.4707L93.1973 59H91.5371L86.2734 44.7812H88.3145L92.3574 56.5098ZM102.796 59H100.921V44.7812H102.796V59ZM106.634 59V44.7812H110.648C111.885 44.7812 112.978 45.0547 113.929 45.6016C114.879 46.1484 115.612 46.9264 116.126 47.9355C116.647 48.9447 116.911 50.1035 116.917 51.4121V52.3203C116.917 53.6615 116.657 54.8366 116.136 55.8457C115.622 56.8548 114.883 57.6296 113.919 58.1699C112.962 58.7103 111.846 58.987 110.57 59H106.634ZM108.509 46.3242V57.4668H110.482C111.927 57.4668 113.05 57.0176 113.851 56.1191C114.658 55.2207 115.062 53.9414 115.062 52.2812V51.4512C115.062 49.8366 114.681 48.5833 113.919 47.6914C113.164 46.793 112.09 46.3372 110.696 46.3242H108.509ZM128.196 52.4277H122.034V57.4668H129.192V59H120.159V44.7812H129.095V46.3242H122.034V50.8945H128.196V52.4277ZM142.864 52.3496C142.864 53.7428 142.629 54.9603 142.161 56.002C141.692 57.0371 141.028 57.8281 140.168 58.375C139.309 58.9219 138.306 59.1953 137.161 59.1953C136.041 59.1953 135.048 58.9219 134.182 58.375C133.316 57.8216 132.642 57.0371 132.161 56.0215C131.685 54.9993 131.441 53.8177 131.428 52.4766V51.4512C131.428 50.084 131.666 48.8763 132.141 47.8281C132.616 46.7799 133.287 45.9792 134.153 45.4258C135.025 44.8659 136.021 44.5859 137.141 44.5859C138.28 44.5859 139.283 44.8626 140.149 45.416C141.021 45.9629 141.692 46.7604 142.161 47.8086C142.629 48.8503 142.864 50.0645 142.864 51.4512V52.3496ZM140.998 51.4316C140.998 49.7454 140.66 48.4531 139.983 47.5547C139.306 46.6497 138.358 46.1973 137.141 46.1973C135.956 46.1973 135.022 46.6497 134.338 47.5547C133.661 48.4531 133.313 49.7031 133.293 51.3047V52.3496C133.293 53.9837 133.635 55.2695 134.319 56.207C135.009 57.138 135.956 57.6035 137.161 57.6035C138.371 57.6035 139.309 57.1641 139.973 56.2852C140.637 55.3997 140.979 54.1335 140.998 52.4863V51.4316ZM156.574 57.1348C156.092 57.8249 155.419 58.3424 154.553 58.6875C153.693 59.026 152.691 59.1953 151.545 59.1953C150.386 59.1953 149.357 58.9251 148.459 58.3848C147.561 57.8379 146.864 57.0632 146.369 56.0605C145.881 55.0579 145.63 53.8958 145.617 52.5742V51.334C145.617 49.1921 146.115 47.5319 147.111 46.3535C148.114 45.1751 149.52 44.5859 151.33 44.5859C152.814 44.5859 154.009 44.9668 154.914 45.7285C155.819 46.4837 156.372 47.5579 156.574 48.9512H154.699C154.348 47.0697 153.228 46.1289 151.34 46.1289C150.083 46.1289 149.13 46.5716 148.479 47.457C147.834 48.3359 147.508 49.612 147.502 51.2852V52.4473C147.502 54.0423 147.867 55.3118 148.596 56.2559C149.325 57.1934 150.311 57.6621 151.555 57.6621C152.258 57.6621 152.873 57.584 153.4 57.4277C153.928 57.2715 154.364 57.0078 154.709 56.6367V53.4434H151.418V51.9199H156.574V57.1348ZM165.324 53.248H161.984V59H160.099V44.7812H164.806C166.408 44.7812 167.638 45.1458 168.498 45.875C169.364 46.6042 169.796 47.6654 169.796 49.0586C169.796 49.944 169.556 50.7155 169.074 51.373C168.599 52.0306 167.935 52.5221 167.082 52.8477L170.421 58.8828V59H168.41L165.324 53.248ZM161.984 51.7148H164.865C165.796 51.7148 166.535 51.474 167.082 50.9922C167.635 50.5104 167.912 49.8659 167.912 49.0586C167.912 48.1797 167.648 47.5059 167.121 47.0371C166.6 46.5684 165.845 46.3307 164.855 46.3242H161.984V51.7148ZM180.685 55.2891H174.728L173.39 59H171.456L176.886 44.7812H178.527L183.966 59H182.042L180.685 55.2891ZM175.294 53.7461H180.128L177.706 47.0957L175.294 53.7461ZM188.155 53.4336V59H186.28V44.7812H191.524C193.08 44.7812 194.298 45.1784 195.177 45.9727C196.062 46.7669 196.505 47.8184 196.505 49.127C196.505 50.5072 196.072 51.5716 195.206 52.3203C194.346 53.0625 193.113 53.4336 191.505 53.4336H188.155ZM188.155 51.9004H191.524C192.527 51.9004 193.295 51.666 193.829 51.1973C194.363 50.722 194.63 50.0384 194.63 49.1465C194.63 48.3001 194.363 47.623 193.829 47.1152C193.295 46.6074 192.563 46.3438 191.632 46.3242H188.155V51.9004ZM210.225 59H208.34V52.4277H201.172V59H199.297V44.7812H201.172V50.8945H208.34V44.7812H210.225V59ZM218.018 51.9199L221.729 44.7812H223.857L218.955 53.6973V59H217.08V53.6973L212.178 44.7812H214.326L218.018 51.9199Z" fill="black"/>
<path d="M97.832 39H94.9023L89.1992 29.6445V39H86.2695V24.7812H89.1992L94.9121 34.1562V24.7812H97.832V39ZM107.506 39H104.576V24.7812H107.506V39ZM117.16 36.6465H123.381V39H114.23V24.7812H117.16V36.6465ZM136.443 35.2695C136.443 34.7161 136.248 34.293 135.857 34C135.467 33.7005 134.764 33.388 133.748 33.0625C132.732 32.7305 131.928 32.4049 131.336 32.0859C129.721 31.2135 128.914 30.0384 128.914 28.5605C128.914 27.7923 129.129 27.1087 129.559 26.5098C129.995 25.9043 130.617 25.4323 131.424 25.0938C132.238 24.7552 133.149 24.5859 134.158 24.5859C135.174 24.5859 136.079 24.7715 136.873 25.1426C137.667 25.5072 138.283 26.0247 138.719 26.6953C139.161 27.3659 139.383 28.1276 139.383 28.9805H136.453C136.453 28.3294 136.248 27.8249 135.838 27.4668C135.428 27.1022 134.852 26.9199 134.109 26.9199C133.393 26.9199 132.837 27.0729 132.439 27.3789C132.042 27.6784 131.844 28.0755 131.844 28.5703C131.844 29.0326 132.075 29.4199 132.537 29.7324C133.006 30.0449 133.693 30.3379 134.598 30.6113C136.264 31.1126 137.479 31.7344 138.24 32.4766C139.002 33.2188 139.383 34.1432 139.383 35.25C139.383 36.4805 138.917 37.4473 137.986 38.1504C137.055 38.847 135.802 39.1953 134.227 39.1953C133.133 39.1953 132.137 38.9967 131.238 38.5996C130.34 38.196 129.653 37.6458 129.178 36.9492C128.709 36.2526 128.475 35.4453 128.475 34.5273H131.414C131.414 36.0964 132.352 36.8809 134.227 36.8809C134.923 36.8809 135.467 36.7409 135.857 36.4609C136.248 36.1745 136.443 35.7773 136.443 35.2695ZM163.336 39V24.7812H168.316C170.042 24.7812 171.35 25.1133 172.242 25.7773C173.134 26.4349 173.58 27.4017 173.58 28.6777C173.58 29.3743 173.401 29.9896 173.043 30.5234C172.685 31.0508 172.187 31.4382 171.549 31.6855C172.278 31.8678 172.851 32.2357 173.268 32.7891C173.691 33.3424 173.902 34.0195 173.902 34.8203C173.902 36.1875 173.466 37.2227 172.594 37.9258C171.721 38.6289 170.478 38.987 168.863 39H163.336ZM166.266 32.8086V36.6465H168.775C169.465 36.6465 170.003 36.4837 170.387 36.1582C170.777 35.8262 170.973 35.3704 170.973 34.791C170.973 33.4889 170.299 32.8281 168.951 32.8086H166.266ZM166.266 30.7383H168.434C169.911 30.7122 170.65 30.123 170.65 28.9707C170.65 28.3262 170.462 27.8639 170.084 27.584C169.713 27.2975 169.124 27.1543 168.316 27.1543H166.266V30.7383ZM188.664 32.8379H183.039V36.6465H189.641V39H180.109V24.7812H189.621V27.1543H183.039V30.543H188.664V32.8379ZM206.922 39H203.992L198.289 29.6445V39H195.359V24.7812H198.289L204.002 34.1562V24.7812H206.922V39ZM216.586 36.6465H223.754V39H212.924V37.2812L219.955 27.1543H212.934V24.7812H223.598V26.4609L216.586 36.6465Z" fill="black"/>
</svg>
